<svg xmlns="http://www.w3.org/2000/svg" viewBox="0 0 327.86 61.42"><defs><style>.cls-1{fill:#7200f6;}</style></defs><title>won-logo</title><g id="Layer_2" data-name="Layer 2"><g id="Layer_1-2" data-name="Layer 1"><path class="cls-1" d="M30.46,4.16a3.47,3.47,0,0,1-2.73,2.61,3.13,3.13,0,0,1-2-.24c-.31-.14-.47-.08-.6.2-.45,1-.95,2-1.32,3a8,8,0,0,1-1.4,2.7,10.29,10.29,0,0,0-2,3.35A10.41,10.41,0,0,1,19.85,17a.49.49,0,0,0,.09.61c.13.14.24.29.37.43a4.53,4.53,0,0,1,1.07,4.08c-.17,1-.51,2-.72,3A9.65,9.65,0,0,0,20.43,27,9,9,0,0,1,20,29.61a2.52,2.52,0,0,0-.22,1.51c0,.1-.16.33-.3.37a2.53,2.53,0,0,1-.82.1c-.23,0-.32.09-.31.31.08,1.43.15,2.87.23,4.3a16.39,16.39,0,0,1,0,3.57l-1.14.08c-.06.48-.12,1-.17,1.45a32.5,32.5,0,0,1-.35,3.56,36.8,36.8,0,0,0-.28,4.8c-.13,1.67-.18,3.35-.24,5a4.89,4.89,0,0,0,.09,1.07.74.74,0,0,0,.23.4,2.15,2.15,0,0,1,.81,1.65,5.92,5.92,0,0,0,.45,1.67c.08.21.39.34.59.5s.15.07.21.12a1,1,0,0,1,.41,1c-.16.36-.5.37-.82.35a5.69,5.69,0,0,1-2.53-1L13.45,59a9,9,0,0,1-1-.63,1,1,0,0,1-.21-1.44,9.53,9.53,0,0,1,1.17-1.29c.15-.14.42-.15.7-.24-.07-.47-.12-1-.2-1.48-.27-1.57-.56-3.13-.83-4.7a5.29,5.29,0,0,1,.09-2.34,8,8,0,0,0,0-4.25c-.25-1-.41-2-.62-3a1.5,1.5,0,0,0-.08-.27c-.24.44-.46.83-.65,1.24a15,15,0,0,1-3.61,4.68A16.35,16.35,0,0,0,5.86,48a20.4,20.4,0,0,1-1.52,2,3,3,0,0,0-.79,1.91s0,0,0,.07a12.7,12.7,0,0,0-.7,4,.19.19,0,0,1,0,.07c-.23,1-.63,1.29-1.48,1.19A1.57,1.57,0,0,1,0,55.63,15.6,15.6,0,0,1,.41,53.4c.12-.51.3-1,.46-1.52a3.75,3.75,0,0,1,.93-1.55,4.52,4.52,0,0,0,.82-1.39c.43-1,.8-2.09,1.19-3.13A5.36,5.36,0,0,1,6.17,43a1.59,1.59,0,0,0,.6-.66,10.55,10.55,0,0,0,.89-3.17c.1-.65.22-1.31.36-1.95a.42.42,0,0,0-.2-.54,2,2,0,0,1-1-1.72,4.32,4.32,0,0,0-.18-.78,3.14,3.14,0,0,1,.45-.25,1.74,1.74,0,0,0,1-1.06c.17-.5.29-1,.48-1.52a12.7,12.7,0,0,1,.89-2A29,29,0,0,0,12.05,24a8,8,0,0,0,.37-4.57,1.35,1.35,0,0,1,0-.28c0-.44,0-.81-.5-1a.46.46,0,0,1-.21-.36.83.83,0,0,0-.41-.68.86.86,0,0,1-.38-1.17,4.32,4.32,0,0,1,.66-1.64A7.17,7.17,0,0,0,12.82,12a2.94,2.94,0,0,1,2.53-2c.77-.07,1.55-.08,2.36-.12a24.84,24.84,0,0,1,3.56-4.56,7,7,0,0,1,2.12-1.78.55.55,0,0,0,.25-.33A3.49,3.49,0,0,1,26.47,0h1.28a3.59,3.59,0,0,1,2.71,2.64ZM18.83,13.73l.15.06.09-.18c.75-1.37,1.56-2.72,2.24-4.13A11.5,11.5,0,0,1,22.93,7,14,14,0,0,0,24,5.39c.06-.1,0-.26,0-.5l-.38.29a8.11,8.11,0,0,0-2,2.77,15.38,15.38,0,0,1-2.29,3.86,7.4,7.4,0,0,1-.8.69C19.19,12.86,18.82,13.33,18.83,13.73Zm-5.65,1.43-.48-1C12.36,14.68,12.47,14.9,13.18,15.16Z"/><path class="cls-1" d="M35.93,18.17H41.1l3.74,26.94.21,3h.11l1.58-13.34,2.74-16.55h4.11L57.91,47.8H58L59.44,35l2.43-16.87H67L60,57.92H55.81l-3-18.51-1.21-10-.05-1h-.11L50.27,39.1,47.11,57.92H42.78Z"/><path class="cls-1" d="M75.79,18.43a9.51,9.51,0,0,1,7.59,0,8.65,8.65,0,0,1,2.74,1.95,10.05,10.05,0,0,1,1.82,3.09A24.15,24.15,0,0,1,89.07,27a28.54,28.54,0,0,1,.58,4q.21,2.37.24,3.69t0,3.42c0,1.41,0,2.55,0,3.43s-.1,2.11-.24,3.69a28.77,28.77,0,0,1-.58,4,24.15,24.15,0,0,1-1.13,3.5,10.17,10.17,0,0,1-1.82,3.09,8.65,8.65,0,0,1-2.74,1.95,9.51,9.51,0,0,1-7.59,0,8.54,8.54,0,0,1-2.74-1.95,10,10,0,0,1-1.82-3.09,25.6,25.6,0,0,1-1.14-3.5,30.4,30.4,0,0,1-.58-4c-.14-1.58-.22-2.81-.23-3.69s0-2,0-3.43,0-2.54,0-3.42.09-2.11.23-3.69a30.14,30.14,0,0,1,.58-4,25.6,25.6,0,0,1,1.14-3.5,9.86,9.86,0,0,1,1.82-3.09A8.54,8.54,0,0,1,75.79,18.43Zm7.59,8.15c-.63-2.66-1.9-4-3.8-4s-3.16,1.32-3.79,4a52.65,52.65,0,0,0-1,11.46,52.69,52.69,0,0,0,1,11.47c.63,2.66,1.9,4,3.79,4s3.17-1.32,3.8-4a52.69,52.69,0,0,0,1-11.47A52.65,52.65,0,0,0,83.38,26.58Z"/><path class="cls-1" d="M95.35,57.92V18.17h6.33c1,0,1.86,0,2.53.08a10.25,10.25,0,0,1,2.55.63,5.94,5.94,0,0,1,2.46,1.55,9.15,9.15,0,0,1,1.6,3,14.59,14.59,0,0,1,.71,4.87,20.34,20.34,0,0,1-.42,4.17,10.47,10.47,0,0,1-1.71,3.85,5.05,5.05,0,0,1-3.35,2.21l7.33,19.35H107.9l-7.17-19.45h-.11V57.92Zm5.27-22.14q5.32.36,5.33-6.28a12,12,0,0,0-.87-5.14c-.58-1.18-1.79-1.75-3.62-1.71h-.84Z"/><path class="cls-1" d="M117.28,18.17h5.27V53.33h8.86v4.59H117.28Z"/><path class="cls-1" d="M134.73,18.17h5.91c1.12,0,2,0,2.71.08a16.23,16.23,0,0,1,2.61.47,6.41,6.41,0,0,1,2.56,1.19,13.13,13.13,0,0,1,2.11,2.29,11.54,11.54,0,0,1,1.77,3.64,37.59,37.59,0,0,1,1.08,5.4,57.33,57.33,0,0,1,.44,7.49,53.16,53.16,0,0,1-.39,6.83,33.44,33.44,0,0,1-1,5A9.72,9.72,0,0,1,150.76,54a11.61,11.61,0,0,1-2.27,2.17,8.26,8.26,0,0,1-3,1.15,23.49,23.49,0,0,1-3.32.51c-1,.07-2.27.1-3.85.1h-3.64Zm13.61,20.56v-3.9c0-.67-.06-1.63-.16-2.88a19.08,19.08,0,0,0-.45-3,17.56,17.56,0,0,0-.9-2.54,5.78,5.78,0,0,0-1.47-2.16A7.53,7.53,0,0,0,143.12,23a7.74,7.74,0,0,0-3.11-.39V53.44a8.72,8.72,0,0,0,3.08-.4,8.43,8.43,0,0,0,2.21-1,4.63,4.63,0,0,0,1.48-1.87,20.11,20.11,0,0,0,.92-2.22,12,12,0,0,0,.45-2.74c.09-1.19.14-2.11.16-2.74s0-1.6,0-2.9Z"/><path class="cls-1" d="M169.77,57.42a8.18,8.18,0,0,1-7.54,0,7.13,7.13,0,0,1-2.48-2.24,10.68,10.68,0,0,1-1.37-3.3,20.51,20.51,0,0,1-.63-3.58c-.09-1.07-.14-2.28-.14-3.61s0-2.6.14-3.69a21.1,21.1,0,0,1,.63-3.64A10.6,10.6,0,0,1,159.75,34a7.13,7.13,0,0,1,2.48-2.24,8.11,8.11,0,0,1,7.54,0A7.13,7.13,0,0,1,172.25,34a10.84,10.84,0,0,1,1.37,3.32,23.22,23.22,0,0,1,.63,3.64c.09,1.09.13,2.32.13,3.69s0,2.54-.13,3.61a22.58,22.58,0,0,1-.63,3.58,10.93,10.93,0,0,1-1.37,3.3A7.13,7.13,0,0,1,169.77,57.42Zm-4.91-3.85a2.64,2.64,0,0,0,1.14.24,2.57,2.57,0,0,0,1.13-.24,2,2,0,0,0,.82-.71c.21-.32.4-.64.58-1a5.15,5.15,0,0,0,.42-1.26c.11-.51.18-1,.24-1.35s.08-.85.1-1.39,0-1,0-1.27v-4q0-.45,0-1.29c0-.57,0-1-.1-1.43s-.13-.83-.24-1.34a5.39,5.39,0,0,0-.42-1.27c-.18-.33-.37-.66-.58-1a1.93,1.93,0,0,0-.82-.71,2.57,2.57,0,0,0-1.13-.24,2.64,2.64,0,0,0-1.14.24,1.91,1.91,0,0,0-.81.71,9.56,9.56,0,0,0-.58,1A5,5,0,0,0,163,38.6c-.1.51-.18,1-.23,1.34a12.67,12.67,0,0,0-.11,1.43c0,.56,0,1,0,1.29v4c0,.3,0,.72,0,1.27a12.27,12.27,0,0,0,.11,1.39c.05.39.13.84.23,1.35a4.74,4.74,0,0,0,.43,1.26,9.7,9.7,0,0,0,.58,1A2,2,0,0,0,164.86,53.57Z"/><path class="cls-1" d="M177,31.3h2.48V22.7a28.2,28.2,0,0,1,.16-3.37,11.32,11.32,0,0,1,.71-2.74,4,4,0,0,1,1.85-2.14,6.82,6.82,0,0,1,3.29-.71,8.34,8.34,0,0,1,3.32.74v5.16a4.38,4.38,0,0,0-2.05-.63,2,2,0,0,0-1.66.69,2.48,2.48,0,0,0-.61,1.34c0,.44,0,1.06,0,1.87V31.3h4.11v3.9H184.4V57.92h-5V35.2H177Z"/><path class="cls-1" d="M196.37,27.39l.31,2.59.79,13.34v14.6H192.2V18.17h5.06l9.28,30.21.11-.11-1.27-15.92V18.17h5.27V57.92h-4.9l-9.28-30.63Z"/><path class="cls-1" d="M217.09,18.17h14.18v4.58h-8.91v12.5h8v4.59h-8V53.33h8.91v4.59H217.09Z"/><path class="cls-1" d="M232,18.17H249.4v4.58h-6V57.92h-5.28V22.75H232Z"/><path class="cls-1" d="M258.74,57.92h-6.33V18.17H259q5.12,0,7.15,2.63t2,8a18.48,18.48,0,0,1-.34,3.82,7.19,7.19,0,0,1-1.5,3,5.86,5.86,0,0,1-3.16,1.95v.11a7,7,0,0,1,4.37,3.32,12.94,12.94,0,0,1,1.22,6q0,5.64-2.33,8.25C264.89,57.05,262.32,57.92,258.74,57.92ZM263,28.61a7.92,7.92,0,0,0-1.08-4.33,3.86,3.86,0,0,0-3.61-1.63h-.9v13c2.25.11,3.74-.44,4.48-1.63A10.54,10.54,0,0,0,263,28.61Zm-5.59,11.28V53.44c2.18.11,3.68-.38,4.51-1.45a8.41,8.41,0,0,0,1.24-5.09A9.54,9.54,0,0,0,262,41.55C261.19,40.41,259.67,39.85,257.42,39.89Z"/><path class="cls-1" d="M280.09,18.17h4.17l8.54,39.75h-5.33L286,50.17h-7.91l-1.48,7.75h-5.17Zm5.11,27.89-1.05-5.75-2-14.45H282l-3.16,20.2Z"/><path class="cls-1" d="M296.28,18.17h5.27V53.33h8.86v4.59H296.28Z"/><path class="cls-1" d="M313.73,18.17H319V53.33h8.86v4.59H313.73Z"/></g></g></svg>