<svg xmlns="http://www.w3.org/2000/svg" viewBox="0 0 303.25 71.55"><defs><style>.cls-1,.cls-2{fill:#d52726;}.cls-1{fill-rule:evenodd;}</style></defs><title>wor-logo</title><g id="Layer_2" data-name="Layer 2"><g id="Layer_1-2" data-name="Layer 1"><path class="cls-1" d="M31,63.45s.86,1.47,1.12,1.89.67.9,1,1.37a5.9,5.9,0,0,1,1.42,3.56v.24l-.17.17c-1.23,1.21-4.2.93-5.64.49-1.76-.55-1.86-1.85-1.71-3.25.08-.69.21-1.42.24-2.12a18,18,0,0,0-.23-2.1c-.23-.79-.43-1.62-.69-2.39l-1.81-2.39a35.25,35.25,0,0,1-2.28-3.24A5.48,5.48,0,0,1,22,50.4L17,45.48c-2.2-2.07-3.89-4.16-4.53-7.29-.38.38-.75.77-1.13,1.11a7,7,0,0,1-1.33,1,4,4,0,0,1-3.4.35c-4.22,2.09-6-1.29-5.8-5A1.76,1.76,0,0,1,0,34.23a9.71,9.71,0,0,1,.1-2.37A34,34,0,0,1,1,28c-.94-3.3-2-8.53.82-11.33C1.63,16.24,1.08,15,1.08,15a17.52,17.52,0,0,1,6.67-3.84c2.08-3.4,6.07-3.76,9.63-3.26a4.43,4.43,0,0,1,2.1-.95,1,1,0,0,0,.09-.34,2.6,2.6,0,0,0,0-.57,13,13,0,0,1,0-1.52A4.53,4.53,0,0,1,22,.89a4.31,4.31,0,0,1,4.14-.6c.59.22,3,1.63,3.72,2a3.67,3.67,0,0,1,2,1.77c.25.71-.14,1.41-1.51,1.89l0,2.14-.61.3c.05.26.08.53.13.78.31,1.37-.42,1.68-1.25,1.66v.78l-.48.29a.92.92,0,0,1-.77,1l0,.13a7.89,7.89,0,0,1,.3.94A6,6,0,0,1,30,16.74c3.75,2.51,1.92,6.16-.42,8.83A10,10,0,0,1,27,30.74c1.54,1.74,6.31,6.77,7.72,13.15.25,1.11.44,2.25.71,3.56.49,2.32,0,3.39-1.22,3.57-.15,0-1.49-.1-1.82-.09a17.91,17.91,0,0,1-2-.11c.1.22.23.54.36.89a11.93,11.93,0,0,1,.5,1.73c.21,1.21,0,2.21-1.3,2,.08,1.36.31,6.05,1.11,8ZM12.39,33.3l.19-1c-.36-.78-1.21-2.8-1.91-4.87s-1.23-4.23-.95-5.31a4.51,4.51,0,0,1-.45-2.34,10.78,10.78,0,0,1-2.85,1.07c-.11.78-.51,2.34-.88,3.82-.18.71-.37,1.46-.5,2.09-.06.3-.11.57-.14.8a2,2,0,0,0,0,.36l.21.19c4.45-2.57,6.69,1.47,6.19,5.48l.11,0a3.75,3.75,0,0,0,.39-.1Z"/><path class="cls-2" d="M51.07,15.22H56L59.5,40.71l.2,2.8h.1l1.49-12.62,2.6-15.67h3.89l4.09,28H72l1.35-12.07,2.29-16h4.84L73.87,52.84h-4L67,35.33l-1.15-9.48,0-1h-.1L64.64,35l-3,17.81H57.55Z"/><path class="cls-2" d="M88.78,15.47a9,9,0,0,1,7.19,0,8.07,8.07,0,0,1,2.59,1.85,9.37,9.37,0,0,1,1.72,2.91,23.73,23.73,0,0,1,1.07,3.32,26.25,26.25,0,0,1,.55,3.74c.14,1.5.21,2.67.23,3.5s0,1.91,0,3.24,0,2.41,0,3.24-.09,2-.23,3.49a26.2,26.2,0,0,1-.55,3.75,23.64,23.64,0,0,1-1.07,3.31,9.31,9.31,0,0,1-1.72,2.92A8.22,8.22,0,0,1,96,52.59a9,9,0,0,1-7.19,0,8.11,8.11,0,0,1-2.59-1.85,9.31,9.31,0,0,1-1.72-2.92,23.79,23.79,0,0,1-1.08-3.31,27.88,27.88,0,0,1-.54-3.75c-.14-1.49-.21-2.66-.23-3.49s0-1.91,0-3.24,0-2.41,0-3.24.09-2,.23-3.5a28,28,0,0,1,.54-3.74,23.89,23.89,0,0,1,1.08-3.32,9.37,9.37,0,0,1,1.72-2.91A8,8,0,0,1,88.78,15.47ZM96,23.18q-.9-3.76-3.6-3.77t-3.59,3.77A49.65,49.65,0,0,0,87.88,34a49.65,49.65,0,0,0,.9,10.85q.9,3.76,3.59,3.77T96,44.88A49.77,49.77,0,0,0,96.86,34,49.77,49.77,0,0,0,96,23.18Z"/><path class="cls-2" d="M107.29,52.84V15.22h6c1,0,1.76,0,2.39.08a9.37,9.37,0,0,1,2.42.59,5.44,5.44,0,0,1,2.32,1.48,8.29,8.29,0,0,1,1.52,2.86,14,14,0,0,1,.68,4.62,19.5,19.5,0,0,1-.4,3.94,10,10,0,0,1-1.62,3.64,4.79,4.79,0,0,1-3.17,2.1l6.93,18.31h-5.18l-6.79-18.41h-.1V52.84Zm5-21q5,.36,5-5.93a11.53,11.53,0,0,0-.82-4.87q-.82-1.66-3.42-1.62h-.8Z"/><path class="cls-2" d="M128,15.22h5V48.5h8.39v4.34H128Z"/><path class="cls-2" d="M144.56,15.22h5.59c1.06,0,1.92,0,2.56.08a14.11,14.11,0,0,1,2.47.44,6.12,6.12,0,0,1,2.42,1.13,12.46,12.46,0,0,1,2,2.17,10.71,10.71,0,0,1,1.67,3.44,35,35,0,0,1,1,5.11,51.59,51.59,0,0,1,.43,7.09,49.39,49.39,0,0,1-.38,6.46,31.67,31.67,0,0,1-.94,4.74,9.05,9.05,0,0,1-1.68,3.24,11.21,11.21,0,0,1-2.14,2.05,7.85,7.85,0,0,1-2.79,1.09,23.8,23.8,0,0,1-3.15.48c-.93.06-2.14.1-3.64.1h-3.44Zm12.87,19.46V31c0-.64-.05-1.54-.15-2.72a17.84,17.84,0,0,0-.42-2.82,19.15,19.15,0,0,0-.85-2.4,5.47,5.47,0,0,0-1.4-2,7,7,0,0,0-2.12-1.18,7.3,7.3,0,0,0-2.94-.37V48.6a8.34,8.34,0,0,0,2.92-.38,8,8,0,0,0,2.09-1,4.45,4.45,0,0,0,1.4-1.77,18.23,18.23,0,0,0,.87-2.09,11.2,11.2,0,0,0,.42-2.6c.09-1.13.14-2,.15-2.59s0-1.51,0-2.74Z"/><path class="cls-2" d="M177.71,52.36a7.68,7.68,0,0,1-7.14,0,6.81,6.81,0,0,1-2.34-2.12,10.21,10.21,0,0,1-1.3-3.12,22.12,22.12,0,0,1-.6-3.39q-.12-1.51-.12-3.42c0-1.29,0-2.46.12-3.49a22.9,22.9,0,0,1,.6-3.44,10.24,10.24,0,0,1,1.3-3.14,6.81,6.81,0,0,1,2.34-2.12,7.68,7.68,0,0,1,7.14,0,6.81,6.81,0,0,1,2.34,2.12,10.24,10.24,0,0,1,1.3,3.14,20.61,20.61,0,0,1,.6,3.44c.08,1,.12,2.2.12,3.49s0,2.41-.12,3.42a19.93,19.93,0,0,1-.6,3.39,10.21,10.21,0,0,1-1.3,3.12A6.81,6.81,0,0,1,177.71,52.36Zm-4.64-3.64a2.6,2.6,0,0,0,2.14,0,1.87,1.87,0,0,0,.78-.67c.2-.3.38-.61.55-.93a4.72,4.72,0,0,0,.4-1.19c.1-.48.17-.91.22-1.27s.08-.81.1-1.33,0-.91,0-1.19V38.39c0-.28,0-.69,0-1.22s0-1-.1-1.35-.12-.78-.22-1.27a4.72,4.72,0,0,0-.4-1.19c-.17-.32-.35-.63-.55-.93a1.87,1.87,0,0,0-.78-.67,2.6,2.6,0,0,0-2.14,0,1.85,1.85,0,0,0-.77.67,8.73,8.73,0,0,0-.55.93,4.35,4.35,0,0,0-.4,1.19c-.1.49-.18.91-.23,1.27s-.08.82-.1,1.35,0,.94,0,1.22v3.75c0,.28,0,.68,0,1.19s0,1,.1,1.33.13.79.23,1.27a4.35,4.35,0,0,0,.4,1.19,8.73,8.73,0,0,0,.55.93A1.85,1.85,0,0,0,173.07,48.72Z"/><path class="cls-2" d="M184.52,27.64h2.34V19.51a27.56,27.56,0,0,1,.15-3.19,10.77,10.77,0,0,1,.68-2.6,3.85,3.85,0,0,1,1.74-2,6.44,6.44,0,0,1,3.12-.67,7.92,7.92,0,0,1,3.14.7v4.89a4.16,4.16,0,0,0-1.94-.6,1.9,1.9,0,0,0-1.57.65,2.38,2.38,0,0,0-.58,1.27c0,.42,0,1,0,1.77v7.93h3.89v3.69h-3.89V52.84h-4.69V31.33h-2.34Z"/><path class="cls-2" d="M198.94,52.84V15.22h6c1,0,1.77,0,2.4.08a9.37,9.37,0,0,1,2.42.59,5.5,5.5,0,0,1,2.32,1.48,8.64,8.64,0,0,1,1.52,2.86,14,14,0,0,1,.67,4.62,18.81,18.81,0,0,1-.4,3.94,9.68,9.68,0,0,1-1.62,3.64,4.77,4.77,0,0,1-3.17,2.1L216,52.84h-5.19L204,34.43h-.1V52.84Zm5-21q5,.36,5-5.93a11.37,11.37,0,0,0-.82-4.87q-.82-1.66-3.42-1.62h-.79Z"/><path class="cls-2" d="M219.69,15.22h5V42.81c0,2.26.3,3.8.9,4.61a3,3,0,0,0,2.59,1.23c1.56,0,2.58-.43,3-1.28a8.91,8.91,0,0,0,.75-4V15.22h5V41.91c0,1,0,1.75,0,2.25s-.08,1.22-.18,2.17a8.9,8.9,0,0,1-.45,2.19,12.43,12.43,0,0,1-.94,1.85A4.83,4.83,0,0,1,233.81,52a9.43,9.43,0,0,1-2.3.95,11.84,11.84,0,0,1-3.19.4,10.8,10.8,0,0,1-3.94-.65A6.44,6.44,0,0,1,221.84,51a6.77,6.77,0,0,1-1.4-2.69,16.79,16.79,0,0,1-.63-3.27c-.08-1-.12-2.35-.12-3.92Z"/><path class="cls-2" d="M251.82,33H261v.6c0,.37,0,1.12,0,2.27s0,2,0,2.57,0,1.42-.08,2.57a25.34,25.34,0,0,1-.22,2.67c-.1.63-.26,1.44-.48,2.44a9.53,9.53,0,0,1-.77,2.37c-.3.58-.67,1.22-1.12,1.92a5,5,0,0,1-1.57,1.6,10.17,10.17,0,0,1-2.12.95,8.79,8.79,0,0,1-2.67.4,10.43,10.43,0,0,1-3.84-.65,6.35,6.35,0,0,1-2.72-2,12.92,12.92,0,0,1-1.77-2.94,15.46,15.46,0,0,1-1.05-3.94c-.23-1.57-.39-3.08-.48-4.54s-.12-3.18-.12-5.14,0-3.71.1-5.14.21-2.94.42-4.54a16.36,16.36,0,0,1,1-4,14.18,14.18,0,0,1,1.7-3,6.23,6.23,0,0,1,2.62-2.05,9.57,9.57,0,0,1,3.69-.67,8.8,8.8,0,0,1,6,1.9,11.23,11.23,0,0,1,3.14,5.78l-4.74,2c-.17-.76-.32-1.39-.47-1.87a7.54,7.54,0,0,0-.68-1.5,2.94,2.94,0,0,0-1.25-1.17,4.12,4.12,0,0,0-1.89-.4,3.51,3.51,0,0,0-1.75.42,3.15,3.15,0,0,0-1.22,1.4A11.61,11.61,0,0,0,248,23.3a16.15,16.15,0,0,0-.43,3c-.08,1.25-.14,2.43-.17,3.54s0,2.54,0,4.27a69.05,69.05,0,0,0,.35,7.76,14,14,0,0,0,1,4.46,4.94,4.94,0,0,0,1.37,1.87,2.72,2.72,0,0,0,1.62.48,7.18,7.18,0,0,0,1.25-.1,3,3,0,0,0,1.14-.6,3.08,3.08,0,0,0,1-1.42,14.35,14.35,0,0,0,.62-2.75,29.07,29.07,0,0,0,.28-4.41v-2h-4.19Z"/><path class="cls-2" d="M271.92,52.84h-6V15.22h6.23q4.84,0,6.76,2.49t1.92,7.59a17.21,17.21,0,0,1-.32,3.61,6.73,6.73,0,0,1-1.42,2.87,5.53,5.53,0,0,1-3,1.85v.1a6.66,6.66,0,0,1,4.15,3.14,12.35,12.35,0,0,1,1.14,5.69q0,5.34-2.19,7.81C277.74,52,275.32,52.84,271.92,52.84Zm4-27.74a7.47,7.47,0,0,0-1-4.09,3.64,3.64,0,0,0-3.42-1.55h-.84V31.78c2.12.1,3.54-.41,4.24-1.54A10,10,0,0,0,276,25.1Zm-5.28,10.67V48.6q3.09.15,4.26-1.38a7.89,7.89,0,0,0,1.17-4.81A9,9,0,0,0,275,37.35C274.24,36.27,272.8,35.74,270.68,35.77Z"/><path class="cls-2" d="M283.85,15.22h5.39l4.59,17.41h.1l.79-4.84,3.2-12.57h5.33l-7,21.4V52.84h-5V36.62Z"/></g></g></svg>